<svg width="16" height="16" viewBox="0 0 16 16" fill="none" xmlns="http://www.w3.org/2000/svg">
<path d="M8.66675 3.33329C8.66675 2.9651 8.36827 2.66663 8.00008 2.66663C7.63189 2.66663 7.33341 2.9651 7.33341 3.33329V7.33329H3.33341C2.96522 7.33329 2.66675 7.63177 2.66675 7.99996C2.66675 8.36815 2.96522 8.66662 3.33341 8.66662H7.33341V12.6666C7.33341 13.0348 7.63189 13.3333 8.00008 13.3333C8.36827 13.3333 8.66675 13.0348 8.66675 12.6666V8.66663H12.6667C13.0349 8.66663 13.3334 8.36815 13.3334 7.99996C13.3334 7.63177 13.0349 7.33329 12.6667 7.33329H8.66675V3.33329Z" fill="#1F1F22"/>
</svg>
